:SAMPLES-PER-SECOND 30
:FRAME-RANGE 1-3358
:FULLY-SPECIFIED
:DEGREES
2099
root  -7.89859 39.375 -78.0494 5.9458 -47.0761 -1.56546
RightUpLeg  -12.2852 -6.87534 -4.43454
RightLeg  18.8122 -0.700884 -0.335435
RightFoot  -9.77337 -0.196621 9.48352
RightToes  -1.11029e-010 1.2921e-014 -6.02303e-014
Spine  2.60273 -0.479988 5.27854
Spine1  4.45649 0.156635 -2.57472
HEad  -1.08633 47.9055 -17.9207
LeftShoulder1  0.691274 -1.83484 -5.93492
LeftArm  -0.876251 -11.551 -12.2368
LeftForeArm  22.6403 -19.5218 -5.07977
LeftHand  -0.0953301 4.19975 7.73956
RightShoulder  1.55654 3.25225 17.1538
RightArm  -41.2847 7.75056 23.2567
RightForeArm  17.4465 -4.8272 -5.97242
RightHand  -0.0915129 -4.51673 -9.9589
LeftUpLeg  -26.3896 3.93623 9.55301
LeftLeg  39.3497 2.67276 2.72456
LeftFoot  -8.60678 0.260775 -8.75628
LeftToes  -1.90334e-010 -8.83595e-011 4.99953e-011
2100
root  -8.78678 39.4207 -77.4326 5.38733 -46.2649 -0.512421
RightUpLeg  -10.1786 -6.70509 -5.07542
RightLeg  18.1864 -1.53356 -0.666463
RightFoot  -11.4553 -0.0682444 9.77112
RightToes  -1.11029e-010 1.2921e-014 -6.02303e-014
Spine  2.07174 -0.597539 4.99312
Spine1  4.43514 -0.0555887 -2.56372
HEad  -1.66776 48.6221 -19.5025
LeftShoulder1  0.698801 -1.5567 -6.97359
LeftArm  1.52813 -12.1925 -13.304
LeftForeArm  20.627 -20.9586 -4.52573
LeftHand  -0.092562 4.15853 7.19196
RightShoulder  1.51393 3.11259 16.9882
RightArm  -40.7954 7.15081 22.3353
RightForeArm  17.7535 -4.25254 -5.36006
RightHand  -0.129995 -4.13609 -10.684
LeftUpLeg  -26.6419 5.98815 7.47797
LeftLeg  32.7808 3.32011 2.6531
LeftFoot  -8.56097 0.270388 -9.01814
LeftToes  -1.90334e-010 -8.83595e-011 4.99953e-011
2101
root  -9.66427 39.436 -76.7711 4.81262 -45.1768 0.463409
RightUpLeg  -7.95115 -6.49424 -5.65953
RightLeg  17.6788 -2.66571 -1.11342
RightFoot  -13.0726 0.065151 10.1756
RightToes  -1.11029e-010 1.2921e-014 -6.02303e-014
Spine  1.48765 -0.693191 4.43668
Spine1  4.43749 -0.193954 -2.67863
HEad  -0.916534 48.9399 -19.293
LeftShoulder1  0.720413 -1.51078 -7.63088
LeftArm  3.53505 -13.4047 -15.2846
LeftForeArm  20.662 -20.9416 -4.57504
LeftHand  -0.0834199 4.21721 6.56687
RightShoulder  1.49015 2.9959 17.0491
RightArm  -40.1969 5.79835 21.4645
RightForeArm  18.6173 -3.14273 -4.70131
RightHand  -0.194198 -3.48916 -11.1365
LeftUpLeg  -26.6169 7.96064 4.9372
LeftLeg  26.6854 4.72264 2.91414
LeftFoot  -7.57904 0.388522 -10.4279
LeftToes  -1.90334e-010 -8.83595e-011 4.99953e-011
2102
root  -10.5252 39.3577 -76.0465 3.84888 -43.7455 1.67755
RightUpLeg  -5.94574 -6.41509 -6.48835
RightLeg  18.4013 -3.95579 -1.6774
RightFoot  -15.0078 0.239209 10.6361
RightToes  -1.11029e-010 1.2921e-014 -6.02303e-014
Spine  0.655896 -0.89177 3.45568
Spine1  4.87139 -0.383478 -2.87929
HEad  1.10553 48.3712 -16.8477
LeftShoulder1  0.775177 -1.7644 -8.00373
LeftArm  6.22752 -14.4541 -17.5895
LeftForeArm  20.4695 -20.8167 -4.70066
LeftHand  -0.0728933 4.26533 5.65507
RightShoulder  1.44562 2.84035 16.9059
RightArm  -40.3594 3.88353 21.7425
RightForeArm  19.8459 -2.84077 -4.76867
RightHand  -0.236428 -2.99231 -10.9617
LeftUpLeg  -26.3096 8.96975 2.04748
LeftLeg  22.2966 5.72666 2.90732
LeftFoot  -5.83891 0.63753 -12.5015
LeftToes  -1.90334e-010 -8.83595e-011 4.99953e-011
2103
root  -11.3734 39.1421 -75.2515 2.56616 -42.278 2.5549
RightUpLeg  -3.81705 -6.66937 -7.26616
RightLeg  20.4228 -4.78746 -2.18315
RightFoot  -17.4205 0.475762 11.1598
RightToes  -1.11029e-010 1.2921e-014 -6.02303e-014
Spine  0.0472468 -1.08402 2.43746
Spine1  5.4262 -0.538245 -3.13169
HEad  4.02738 46.7439 -13.2876
LeftShoulder1  0.791479 -1.79785 -8.24936
LeftArm  8.99056 -15.637 -20.7058
LeftForeArm  19.5332 -20.228 -5.12754
LeftHand  -0.0687249 4.2326 5.03712
RightShoulder  1.41677 2.69464 16.9995
RightArm  -39.9012 1.56469 22.2581
RightForeArm  20.2105 -3.00939 -4.63365
RightHand  -0.205242 -3.33951 -10.9765
LeftUpLeg  -25.5012 7.70802 0.0129427
LeftLeg  20.787 5.53541 2.64873
LeftFoot  -7.22321 0.517539 -13.1485
LeftToes  -1.90334e-010 -8.83595e-011 4.99953e-011
2104
root  -12.2043 38.9326 -74.3902 1.16528 -41.1343 2.92758
RightUpLeg  -1.66019 -6.8327 -7.97324
RightLeg  23.398 -4.64952 -2.41865
RightFoot  -19.106 0.722315 12.5154
RightToes  -1.11029e-010 1.2921e-014 -6.02303e-014
Spine  -0.26252 -1.16294 1.45738
Spine1  5.89097 -0.589441 -3.4307
HEad  8.08716 43.4494 -8.20805
LeftShoulder1  0.822318 -1.83606 -8.79161
LeftArm  11.6521 -16.4983 -23.8475
LeftForeArm  19.4481 -19.2635 -5.83539
LeftHand  -0.0704865 4.07296 4.6166
RightShoulder  1.39076 2.44762 17.6033
RightArm  -39.2801 -0.503191 22.6126
RightForeArm  21.7299 -3.88927 -4.55034
RightHand  -0.173734 -3.72631 -11.2376
LeftUpLeg  -23.9023 3.87511 -0.783429
LeftLeg  20.7277 4.65517 2.27854
LeftFoot  -7.67655 0.35409 -9.61631
LeftToes  -1.90334e-010 -8.83595e-011 4.99953e-011
2105
root  -13.0298 38.6915 -73.4679 0.21814 -40.4615 2.39139
RightUpLeg  -0.530273 -6.72402 -8.30803
RightLeg  28.6444 -3.07639 -2.04859
RightFoot  -19.8584 0.990516 15.0417
RightToes  -1.11029e-010 1.2921e-014 -6.02303e-014
Spine  -0.565495 -1.3014 0.568279
Spine1  6.3109 -0.888408 -3.17254
HEad  11.3861 39.193 -3.32235
LeftShoulder1  0.821664 -1.53613 -9.8815
LeftArm  14.6893 -16.4369 -26.5474
LeftForeArm  19.1182 -18.7839 -6.30266
LeftHand  -0.0586559 4.29032 4.12235
RightShoulder  1.33049 2.0059 18.538
RightArm  -38.7164 -1.65768 23.3462
RightForeArm  23.1127 -5.05651 -4.53844
RightHand  -0.145115 -4.04608 -11.3423
LeftUpLeg  -22.6439 -2.30289 0.144069
LeftLeg  23.7885 5.12779 2.81078
LeftFoot  -4.89584 0.278111 -4.41669
LeftToes  -1.90334e-010 -8.83595e-011 4.99953e-011
2106
root  -13.8392 38.3927 -72.6305 -0.724609 -40.2917 2.07214
RightUpLeg  -1.8498 -6.43573 -9.11878
RightLeg  37.625 -0.0691489 -0.319985
RightFoot  -19.0338 1.12616 18.5351
RightToes  -1.11029e-010 1.2921e-014 -6.02303e-014
Spine  -0.320651 -1.52874 -1.44052
Spine1  6.32932 -1.46136 -2.28059
HEad  13.3267 35.5271 0.186589
LeftShoulder1  0.722532 -0.793698 -10.6084
LeftArm  15.2565 -14.9998 -29.8936
LeftForeArm  17.7846 -17.6965 -7.1629
LeftHand  -0.0473819 4.67003 4.1903
RightShoulder  1.24744 1.36275 20.317
RightArm  -37.8926 -2.3353 24.6264
RightForeArm  23.7478 -5.13446 -4.0717
RightHand  -0.109127 -4.44688 -11.5734
LeftUpLeg  -21.9354 -3.08146 0.411622
LeftLeg  28.318 5.47105 3.53975
LeftFoot  -6.60008 0.157387 -2.84451
LeftToes  -1.90334e-010 -8.83595e-011 4.99953e-011
2107
root  -14.6509 38.3087 -71.8985 -1.26074 -41.3258 2.21692
RightUpLeg  -5.78277 -6.19265 -10.7219
RightLeg  47.7808 3.26552 3.52741
RightFoot  -13.6472 0.338391 21.2297
RightToes  -1.11029e-010 1.2921e-014 -6.02303e-014
Spine  -0.6141 -1.50005 -3.48842
Spine1  6.66205 -1.61056 -2.37078
HEad  14.531 32.4603 3.18897
LeftShoulder1  0.690476 -0.389948 -11.7813
LeftArm  14.0746 -11.996 -32.3743
LeftForeArm  15.1849 -16.6885 -7.90962
LeftHand  -0.0520496 4.50319 4.10942
RightShoulder  1.2146 1.03498 21.6553
RightArm  -37.8294 -3.83536 27.3315
RightForeArm  26.6027 -5.0667 -3.85928
RightHand  -0.0975054 -4.55718 -11.4142
LeftUpLeg  -20.3749 -0.962453 0.511798
LeftLeg  30.0761 4.42147 3.12762
LeftFoot  -8.92672 0.114863 -2.909
LeftToes  -1.90334e-010 -8.83595e-011 4.99953e-011
2108
root  -15.4811 38.4376 -71.1304 -1.05701 -42.5234 1.61838
RightUpLeg  -10.9687 -5.96077 -11.416
RightLeg  57.3783 3.9126 6.13964
RightFoot  -4.77046 -1.05076 17.6051
RightToes  -1.11029e-010 1.2921e-014 -6.02303e-014
Spine  -0.592453 -1.72639 -3.96777
Spine1  6.06315 -1.79386 -2.76837
HEad  15.6246 30.3309 5.39148
LeftShoulder1  0.692823 -0.058543 -13.8886
LeftArm  12.6941 -8.67384 -33.1892
LeftForeArm  13.7969 -15.8531 -8.46058
LeftHand  -0.0508137 4.3887 3.49538
RightShoulder  1.15322 0.702541 22.4798
RightArm  -38.1721 -5.50885 30.8511
RightForeArm  31.079 -5.09097 -3.89101
RightHand  -0.137499 -4.01221 -10.3782
LeftUpLeg  -18.0428 0.422078 1.27625
LeftLeg  30.0648 4.21476 3.00056
LeftFoot  -10.5406 0.085966 -3.25737
LeftToes  -1.90334e-010 -8.83595e-011 4.99953e-011
2109
root  -16.337 38.5126 -70.4624 -0.828613 -42.946 1.04855
RightUpLeg  -14.9659 -7.26775 -11.8792
RightLeg  63.4191 3.37016 6.76676
RightFoot  -1.92508 -1.14625 13.6971
RightToes  -1.11029e-010 1.2921e-014 -6.02303e-014
Spine  -0.096536 -2.16397 -5.25464
Spine1  5.27997 -2.47316 -2.25513
HEad  16.3526 29.3553 6.34066
LeftShoulder1  0.676098 0.361241 -16.4785
LeftArm  10.2495 -5.84688 -33.4332
LeftForeArm  13.2655 -14.5662 -9.16421
LeftHand  -0.0564651 4.22549 3.66508
RightShoulder  0.978807 -0.00412472 23.3585
RightArm  -37.6676 -7.01793 33.8397
RightForeArm  33.5899 -5.11757 -3.53685
RightHand  -0.142766 -3.76535 -9.19237
LeftUpLeg  -15.994 0.297143 2.0762
LeftLeg  30.2012 4.57927 3.2463
LeftFoot  -12.1379 0.0435918 -4.19079
LeftToes  -1.90334e-010 -8.83595e-011 4.99953e-011
2110
root  -17.2043 38.6696 -69.8372 -0.115234 -43.5228 0.0708618
RightUpLeg  -17.6361 -6.97619 -11.2865
RightLeg  64.6791 2.20642 4.50879
RightFoot  -5.07684 -0.803252 13.9791
RightToes  -1.11029e-010 1.2921e-014 -6.02303e-014
Spine  0.0238532 -2.37784 -5.90037
Spine1  4.93018 -2.85327 -1.83344
HEad  16.4609 28.8759 6.48672
LeftShoulder1  0.598564 0.908731 -18.656
LeftArm  6.21688 -3.19548 -34.3583
LeftForeArm  12.5685 -13.5982 -9.38501
LeftHand  -0.0607742 4.15982 3.92895
RightShoulder  0.816328 -0.649933 24.4484
RightArm  -37.408 -8.81451 36.0453
RightForeArm  36.1527 -5.11255 -3.32898
RightHand  -0.134251 -3.77188 -8.58823
LeftUpLeg  -13.6686 0.0649612 3.21421
LeftLeg  29.3249 5.18929 3.51825
LeftFoot  -13.169 -0.00219375 -5.08023
LeftToes  -1.90334e-010 -8.83595e-011 4.99953e-011
2111
root  -18.1084 38.8779 -69.2212 0.892578 -44.2816 -0.921906
RightUpLeg  -19.8021 -8.15517 -10.86
RightLeg  62.1616 1.24902 2.04625
RightFoot  -6.02879 -0.659926 13.2804
RightToes  -1.11029e-010 1.2921e-014 -6.02303e-014
Spine  -0.158662 -2.45206 -6.07443
Spine1  4.63075 -2.93195 -1.60178
HEad  16.0554 28.7663 6.32898
LeftShoulder1  0.508428 1.3486 -19.7402
LeftArm  1.75601 0.00656104 -36.436
LeftForeArm  9.0967 -13.4446 -9.02226
LeftHand  -0.082085 3.65768 4.41053
RightShoulder  0.737414 -0.990037 25.5721
RightArm  -38.0222 -10.9937 37.6663
RightForeArm  38.4328 -5.02026 -3.62047
RightHand  -0.125157 -3.91147 -8.64145
LeftUpLeg  -11.0562 0.0649648 4.34652
LeftLeg  27.3721 5.94166 3.69762
LeftFoot  -13.798 -0.0436842 -5.8868
LeftToes  -1.90334e-010 -8.83595e-011 4.99953e-011
2112
root  -19.0155 39.0794 -68.6284 2.07776 -44.774 -1.80469
RightUpLeg  -21.1935 -9.82844 -10.4834
RightLeg  56.2981 0.104434 -0.251779
RightFoot  -5.79561 -0.666527 12.8928
RightToes  -1.11029e-010 1.2921e-014 -6.02303e-014
Spine  -0.46299 -2.59264 -6.02838
Spine1  4.20021 -3.00625 -1.33655
HEad  15.3477 29.0341 5.86537
LeftShoulder1  0.426672 1.69541 -20.298
LeftArm  -1.71105 3.13321 -38.9856
LeftForeArm  3.39701 -13.8407 -8.48536
LeftHand  -0.108739 3.27928 5.22131
RightShoulder  0.646312 -1.32299 26.3062
RightArm  -38.46 -13.2173 39.1187
RightForeArm  38.3431 -4.9822 -3.84683
RightHand  -0.100845 -4.32148 -9.17239
LeftUpLeg  -8.49328 0.349744 5.41484
LeftLeg  24.8085 6.14733 3.51015
LeftFoot  -14.1402 -0.0759963 -6.57054
LeftToes  -1.90334e-010 -8.83595e-011 4.99953e-011
